<?xml version="1.0" encoding="UTF-8"?>
<svg width="1024" height="1024" viewBox="0 0 1024 1024" fill="none" xmlns="http://www.w3.org/2000/svg">
  <defs>
    <linearGradient id="ribbon" x1="210" y1="250" x2="810" y2="760" gradientUnits="userSpaceOnUse">
      <stop offset="0" stop-color="#5AC8FA"/>
      <stop offset="0.45" stop-color="#0A84FF"/>
      <stop offset="1" stop-color="#AF52DE"/>
    </linearGradient>
    <radialGradient id="glass" cx="50%" cy="35%" r="75%">
      <stop offset="0" stop-color="#FFFFFF"/>
      <stop offset="1" stop-color="#EEF2F8"/>
    </radialGradient>
  </defs>
    <rect x="112" y="112" width="800" height="800" rx="190" fill="url(#glass)"/>

  <path d="M351 588
           C351 463 433 384 530 384
           C624 384 697 447 697 530
           C697 613 631 678 547 678
           C453 678 392 609 392 524
           C392 416 475 322 588 322
           C730 322 828 424 828 566
           C828 714 715 810 560 810
           C405 810 290 702 290 554"
        stroke="url(#ribbon)" stroke-width="82" stroke-linecap="round" stroke-linejoin="round"/>

  <circle cx="544" cy="522" r="54" fill="#FFFFFF"/>
  <circle cx="544" cy="522" r="26" fill="#0A84FF"/>
  <circle cx="506" cy="258" r="43" fill="#0B1020"/>
</svg>
